<?xml version="1.0" standalone="no"?><!DOCTYPE svg PUBLIC "-//W3C//DTD SVG 1.1//EN" "http://www.w3.org/Graphics/SVG/1.1/DTD/svg11.dtd"><svg xmlns:xlink="http://www.w3.org/1999/xlink" xmlns="http://www.w3.org/2000/svg" version="1.1" width="200" height="200" viewBox="0 0 200 200"><defs><style type="text/css"><![CDATA[
@font-face {
  font-family: "ifont";
  src: url("//at.alicdn.com/t/font_1442373896_4754455.eot?#iefix") format("embedded-opentype"), url("//at.alicdn.com/t/font_1442373896_4754455.woff") format("woff"), url("//at.alicdn.com/t/font_1442373896_4754455.ttf") format("truetype"), url("//at.alicdn.com/t/font_1442373896_4754455.svg#ifont") format("svg");
}

]]></style></defs><g class="transform-group"><g transform="scale(0.1953125, 0.1953125)"><path d="M507.909 315.54c64.909 0 117.527-54.539 117.527-121.804 0-67.272-52.618-121.807-117.527-121.807-64.902 0-117.513 54.536-117.513 121.807C390.396 261.001 443.007 315.54 507.909 315.54zM731.344 511.62c-56.234 0-21.47 0-44.823 0-23.367 0-27.71-13.282-50.255-34.238-27.007-25.114-63.586-112.165-63.586-112.165s-54.372 3.581-75.136 3.581c-20.764 0-62.487-3.581-62.487-3.581s-73.17 43.672-94.63 60.058c-27.365 20.889-47.002 49.977-47.002 77.777l0 77.69c0 34.732 94.557 37.662 94.557-0.898 0-38.56 0-16.581 0-32.721 0-16.146 10.791-23.318 20.312-27.8 9.517-4.485 26.822 5.376 26.822 28.694l0 206.927c0 24.407-17.677 46.264-41.615 63.451-19.278 13.818-31.388 27.449-50.28 47.27-17.173 18.022 36.284 111.016 72.919 70.327 36.646-40.686 39.259-41.907 66.969-70.216 25.716-26.283 47.106-73.768 47.106-115.356l0-62.546c11.79 14.894 19.887 19.922 30.358 42.026 7.722 16.299 17.072 57.831 17.072 78.014l0 64.763c0 39.75 94.146 38.817 94.146-3.685 0-42.492 0-32.021 0-57.34 0-40.595-14.271-68.594-29.331-103.823-20.28-47.426-27.47-76.935-32.703-88.697-10.109-22.699-7.579-43.024-7.579-56.766 10.948 7.308 15.958 11.028 28.938 27.177 12.98 16.143 22.459 18.718 51.873 18.718l49.452 0C780.597 608.261 777.264 511.62 731.344 511.62z" fill="#272636"></path></g></g></svg>